<svg width="475" height="162" viewBox="0 0 475 162" fill="none" xmlns="http://www.w3.org/2000/svg">
<g clip-path="url(#clip0_1_45)">
<g filter="url(#filter0_n_1_45)">
<path d="M55.4088 10C56.0393 10.5081 57.647 12.5621 58.1966 13.2506C61.799 17.7979 65.2999 22.4231 68.6969 27.1231C70.7226 29.9079 72.9327 32.5646 74.269 35.7216C74.79 36.9536 75.4008 38.2079 75.9611 39.4275C78.0623 43.9784 80.1253 48.5467 82.1479 53.1322C83.2807 55.6447 84.3862 58.1686 85.4656 60.7037C85.8868 61.6907 86.7304 63.5737 86.9551 64.5212C87.0912 65.0943 87.1839 67.301 87.2222 67.9856C87.3643 70.6104 87.4903 73.2361 87.6001 75.8624C87.722 78.3932 87.9055 81.4542 87.8097 83.9502C87.7996 84.2051 85.5502 88.8072 85.2792 89.381C83.9348 92.2388 82.6155 95.1087 81.3205 97.9905C80.5899 99.6049 79.8371 101.245 79.1397 102.874C78.8232 103.608 78.5713 104.81 78.3606 105.624L77.1644 110.213C76.4196 113.057 75.7021 115.91 75.0117 118.769C74.7941 119.659 74.5784 120.55 74.3557 121.439C73.7591 123.83 73.5031 126.309 73.1745 128.751C72.6757 132.451 72.2091 136.154 71.7747 139.861C71.5742 142.894 71.1267 146.04 70.8607 149.073C70.7921 149.851 71.0834 152.216 69.5374 151.449C69.2048 151.283 69.1071 146.362 68.9337 145.749C67.9929 136.648 67.0296 127.724 64.7977 118.831C64.1585 116.207 63.4997 113.588 62.8213 110.974C62.0989 108.205 61.3226 104.65 60.3126 102.004C58.8459 98.1605 56.9631 94.333 55.4134 90.5135C54.6413 88.6113 53.6075 86.767 52.9298 84.8248C52.672 84.0421 52.3331 80.4915 52.2137 79.437C51.9446 77.1043 51.7052 74.768 51.4958 72.429C51.3649 70.9958 51.163 69.4066 51.2102 67.982C51.3258 64.4971 51.5463 61.006 51.7727 57.5274C52.1985 50.9002 52.6659 44.2756 53.1752 37.6541C53.611 31.4317 54.0791 25.2116 54.5796 18.9941C54.7996 16.325 54.9958 12.5205 55.4088 10Z" fill="#232C2B"/>
<path d="M69.5374 151.449C68.9878 150.761 79.9164 66.7861 55.4088 10C54.9958 12.5205 54.7996 16.325 54.5796 18.9941C54.0791 25.2116 53.611 31.4317 53.1752 37.6541C52.6659 44.2756 52.1985 50.9002 51.7727 57.5274C51.5463 61.006 51.3258 64.4971 51.2102 67.982C51.163 69.4066 51.3649 70.9958 51.4958 72.429C51.7052 74.768 51.9446 77.1043 52.2137 79.437C52.3331 80.4915 52.672 84.0421 52.9298 84.8248C53.6075 86.767 54.6413 88.6113 55.4134 90.5135C56.9631 94.333 58.8459 98.1605 60.3126 102.004C61.3226 104.65 62.0989 108.205 62.8213 110.974C63.4997 113.588 64.1585 116.207 64.7977 118.831C67.0296 127.724 67.9929 136.648 68.9337 145.749C69.1071 146.362 69.2048 151.283 69.5374 151.449Z" fill="#32453E"/>
<path d="M71.111 89.3149C71.1548 89.2979 71.2755 41.2372 55.4089 10C54.9959 12.5205 54.7997 16.325 54.5797 18.9941C54.0792 25.2116 53.611 31.4317 53.1753 37.6541C52.666 44.2756 51.7728 57.5275 51.7728 57.5275L61.9762 71.602C61.9762 71.602 71.1686 89.2465 71.111 89.3149Z" fill="#44514D"/>
<path d="M124.343 46.5553L124.475 46.4929C124.568 46.8631 122.76 58.509 122.535 60.0715C121.681 66.0692 120.782 72.0606 119.838 78.0453C119.367 81.0735 118.899 84.1842 118.352 87.202C118.208 87.9967 117.55 89.8389 117.269 90.7016L115.342 96.6042C114.194 100.214 112.988 103.805 111.724 107.377C111.264 108.678 110.666 110.746 110.077 111.92C107.873 116.315 105.641 120.712 103.369 125.073C101.911 127.655 100.322 130.21 98.9993 132.864C96.4979 137.881 94.1558 142.985 91.8792 148.107C91.5718 148.798 91.083 150.024 90.6477 150.608C87.9166 150.927 85.1764 151.16 82.4301 151.306C80.7159 151.413 78.7184 151.561 77.0233 151.535C75.4552 151.567 73.2703 151.646 71.7354 151.519C72.4711 144.787 73.3821 138.075 74.4665 131.389C74.7749 129.453 75.0501 127.495 75.3967 125.551C76.2181 120.934 77.6119 116.329 78.796 111.787C79.3433 109.687 79.8784 107.51 80.479 105.449C81.2439 102.828 82.669 99.9769 83.7997 97.4629C87.849 88.4005 92.5282 79.629 97.804 71.2112C98.7443 69.6919 100.448 66.8413 101.496 65.4868C102.216 64.5543 104.978 62.1097 105.999 61.1841C108.189 59.219 110.408 57.2843 112.654 55.3808C113.637 54.5317 115.208 52.9617 116.196 52.3054C118.692 50.6498 121.743 47.8864 124.343 46.5553Z" fill="#25332D"/>
<path d="M71.7354 151.519C72.4711 144.787 73.3821 138.075 74.4665 131.389C74.7749 129.453 75.0501 127.495 75.3967 125.551C76.2181 120.934 77.6119 116.329 78.796 111.787C79.3433 109.687 79.8784 107.51 80.479 105.449C81.2439 102.828 82.669 99.9768 83.7997 97.4628C87.849 88.4005 92.5282 79.629 97.804 71.2111C98.7443 69.6919 100.448 66.8412 101.496 65.4867C102.216 64.5542 104.978 62.1096 105.999 61.1841C108.189 59.219 110.408 57.2842 112.654 55.3807C113.637 54.5316 115.208 52.9617 116.196 52.3053C118.692 50.6497 121.743 47.8863 124.343 46.5552C124.035 47.2584 123.101 48.699 122.67 49.3958C121.727 50.9084 120.811 52.438 119.924 53.9838C116.687 59.6298 113.593 65.356 110.647 71.157C105.93 80.3067 101.499 89.598 97.3606 99.0192C90.8351 113.604 84.9153 128.535 80.3017 143.83C80.1132 144.455 79.8804 145.222 79.7625 145.863C79.4067 147.804 78.6398 149.57 78.149 151.472C77.7852 151.471 77.3518 151.431 77.0233 151.535C75.4552 151.567 73.2703 151.646 71.7354 151.519Z" fill="#4A5E53"/>
<path d="M10 46.4442C10.9073 46.7506 12.6541 47.9953 13.4921 48.5285C21.9482 53.9085 29.4711 60.6157 37.0413 67.1303C38.0921 68.0346 39.0861 69.508 39.968 70.6088C41.0427 71.9505 42.0974 73.347 43.1503 74.712C44.7901 76.8668 46.3926 79.0491 47.9571 81.2583C48.522 82.0499 50.2665 84.42 50.6221 85.1347C51.7801 87.4648 53.1967 90.3256 54.2062 92.7367C55.5482 95.9424 57.4062 99.8028 58.5541 103.023C59.4081 105.419 60.3923 109.179 61.0474 111.698C62.0539 115.569 63.3799 120.056 64.1982 123.944C65.0181 127.84 65.7315 132.633 66.3348 136.566C66.8705 139.979 67.3463 143.401 67.7617 146.831C67.9195 148.147 68.2192 150.261 68.2535 151.539C67.1838 151.594 64.8104 151.446 63.6498 151.368C61.9077 151.252 59.3028 151.185 57.6294 150.904C56.7981 149.445 56.0114 147.571 55.1907 146.054C52.9859 141.982 50.6542 137.501 48.0998 133.662L36.7421 116.937C35.6012 115.292 34.4495 113.653 33.2869 112.022C32.7837 111.312 31.4838 109.559 31.1504 108.863C29.7391 105.922 28.3203 102.782 27.0453 99.7858L24.4782 93.7393C24.0518 92.7507 23.3051 91.2013 22.9849 90.2537C22.3378 88.3394 21.7712 86.2802 21.1559 84.341C19.075 77.7558 17.1022 71.1378 15.2383 64.4894L11.9512 53.2273C11.3289 51.1183 10.4944 48.5511 10 46.4442Z" fill="#36443F"/>
<path d="M10 46.4442C10.9073 46.7506 12.6541 47.9953 13.4921 48.5285C21.9482 53.9085 29.4711 60.6157 37.0413 67.1303C38.0921 68.0346 39.0861 69.508 39.968 70.6088C41.0427 71.9505 42.0974 73.347 43.1503 74.712C44.7901 76.8668 46.3926 79.0491 47.9571 81.2583C48.522 82.0499 50.2665 84.42 50.6221 85.1347C51.7801 87.4648 53.1967 90.3256 54.2062 92.7367C55.5481 95.9424 57.4062 99.8028 58.5541 103.023C59.4081 105.419 60.3923 109.179 61.0474 111.698C62.0539 115.569 63.3799 120.056 64.1982 123.944C65.0181 127.84 65.7315 132.633 66.3348 136.566C66.8705 139.979 67.3463 143.401 67.7617 146.831C67.9195 148.147 68.2192 150.261 68.2535 151.539C67.1838 151.594 64.8104 151.446 63.6498 151.368C61.9077 151.252 56.6963 123.578 48.6876 107.213C40.6832 90.8558 22.9849 68.2554 22.9849 68.2554L11.9512 53.2273C11.3289 51.1183 10.4944 48.5511 10 46.4442Z" fill="#26302E"/>
<path d="M130 95.8984C129.938 96.6631 124.822 107.124 124.126 108.642C122.509 112.162 121.032 115.784 119.311 119.251C117.616 122.668 115.734 126.016 113.948 129.388C113.057 131.068 112.038 133.484 110.924 134.939C109.581 136.69 99.9033 148.128 98.6204 148.848C96.9606 149.78 94.1881 150.121 92.2723 150.397C92.2118 149.802 95.5396 143.353 96.0082 142.386C100.212 133.708 105.186 125.422 110.348 117.279C110.754 116.638 112.076 115.292 112.639 114.666L116.595 110.263C120.852 105.552 125.511 100.395 130 95.8984Z" fill="#2E3F38"/>
<path d="M19.2043 108.281C19.8531 108.629 22.4064 110.637 23.1078 111.176C27.0124 114.181 30.8314 117.294 34.5603 120.511C35.8065 121.582 37.9719 123.337 39.0038 124.447C40.0238 125.544 41.5313 127.606 42.5029 128.838C46.8555 134.358 50.6067 140.307 54.0261 146.432C54.5289 147.333 56.0217 149.87 56.3073 150.76C55.1381 150.859 49.5147 149.788 48.717 148.967C46.1512 146.329 43.8151 143.351 41.2894 140.656C38.754 137.949 36.6936 134.586 34.5917 131.521C31.2726 126.714 28.0136 121.865 24.8155 116.977L21.0478 111.21C20.5004 110.368 19.638 109.129 19.2043 108.281Z" fill="#2E3F38"/>
</g>
<mask id="mask0_1_45" style="mask-type:alpha" maskUnits="userSpaceOnUse" x="10" y="10" width="120" height="142">
<path d="M55.4088 10C56.0393 10.5081 57.647 12.5621 58.1966 13.2506C61.799 17.7979 65.2999 22.4231 68.6969 27.1231C70.7226 29.9079 72.9327 32.5646 74.269 35.7216C74.79 36.9536 75.4008 38.2079 75.9611 39.4275C78.0623 43.9784 80.1253 48.5467 82.1479 53.1322C83.2807 55.6447 84.3862 58.1686 85.4656 60.7037C85.8868 61.6907 86.7304 63.5737 86.9551 64.5212C87.0912 65.0943 87.1839 67.301 87.2222 67.9856C87.3643 70.6104 87.4903 73.2361 87.6001 75.8624C87.722 78.3932 87.9055 81.4542 87.8097 83.9502C87.7996 84.2051 85.5502 88.8072 85.2792 89.381C83.9348 92.2388 82.6155 95.1087 81.3205 97.9905C80.5899 99.6049 79.8371 101.245 79.1397 102.874C78.8232 103.608 78.5713 104.81 78.3606 105.624L77.1644 110.213C76.4196 113.057 75.7021 115.91 75.0117 118.769C74.7941 119.659 74.5784 120.55 74.3557 121.439C73.7591 123.83 73.5031 126.309 73.1745 128.751C72.6757 132.451 72.2091 136.154 71.7747 139.861C71.5742 142.894 71.1267 146.04 70.8607 149.073C70.7921 149.851 71.0834 152.216 69.5374 151.449C69.2048 151.283 69.1071 146.362 68.9337 145.749C67.9929 136.648 67.0296 127.724 64.7977 118.831C64.1585 116.207 63.4997 113.588 62.8213 110.974C62.0989 108.205 61.3226 104.65 60.3126 102.004C58.8459 98.1605 56.9631 94.333 55.4134 90.5135C54.6413 88.6113 53.6075 86.767 52.9298 84.8248C52.672 84.0421 52.3331 80.4915 52.2137 79.437C51.9446 77.1043 51.7052 74.768 51.4958 72.429C51.3649 70.9958 51.163 69.4066 51.2102 67.982C51.3258 64.4971 51.5463 61.006 51.7727 57.5274C52.1985 50.9002 52.6659 44.2756 53.1752 37.6541C53.611 31.4317 54.0791 25.2116 54.5796 18.9941C54.7996 16.325 54.9958 12.5205 55.4088 10Z" fill="#232C2B"/>
<path d="M69.5374 151.449C68.9878 150.761 79.9164 66.7861 55.4088 10C54.9958 12.5205 54.7996 16.325 54.5796 18.9941C54.0791 25.2116 53.611 31.4317 53.1752 37.6541C52.6659 44.2756 52.1985 50.9002 51.7727 57.5274C51.5463 61.006 51.3258 64.4971 51.2102 67.982C51.163 69.4066 51.3649 70.9958 51.4958 72.429C51.7052 74.768 51.9446 77.1043 52.2137 79.437C52.3331 80.4915 52.672 84.0421 52.9298 84.8248C53.6075 86.767 54.6413 88.6113 55.4134 90.5135C56.9631 94.333 58.8459 98.1605 60.3126 102.004C61.3226 104.65 62.0989 108.205 62.8213 110.974C63.4997 113.588 64.1585 116.207 64.7977 118.831C67.0296 127.724 67.9929 136.648 68.9337 145.749C69.1071 146.362 69.2048 151.283 69.5374 151.449Z" fill="#32453E"/>
<path d="M71.111 89.3149C71.1548 89.2979 71.2755 41.2372 55.4089 10C54.9959 12.5205 54.7997 16.325 54.5797 18.9941C54.0792 25.2116 53.611 31.4317 53.1753 37.6541C52.666 44.2756 51.7728 57.5275 51.7728 57.5275L61.9762 71.602C61.9762 71.602 71.1686 89.2465 71.111 89.3149Z" fill="#44514D"/>
<path d="M124.343 46.5553L124.475 46.4929C124.568 46.8631 122.76 58.509 122.535 60.0715C121.681 66.0692 120.782 72.0606 119.838 78.0453C119.367 81.0735 118.899 84.1842 118.352 87.202C118.208 87.9967 117.55 89.8389 117.269 90.7016L115.342 96.6042C114.194 100.214 112.988 103.805 111.724 107.377C111.264 108.678 110.666 110.746 110.077 111.92C107.873 116.315 105.641 120.712 103.369 125.073C101.911 127.655 100.322 130.21 98.9993 132.864C96.4979 137.881 94.1558 142.985 91.8792 148.107C91.5718 148.798 91.083 150.024 90.6477 150.608C87.9166 150.927 85.1764 151.16 82.4301 151.306C80.7159 151.413 78.7184 151.561 77.0233 151.535C75.4552 151.567 73.2703 151.646 71.7354 151.519C72.4711 144.787 73.3821 138.075 74.4665 131.389C74.7749 129.453 75.0501 127.495 75.3967 125.551C76.2181 120.934 77.6119 116.329 78.796 111.787C79.3433 109.687 79.8784 107.51 80.479 105.449C81.2439 102.828 82.669 99.9769 83.7997 97.4629C87.849 88.4005 92.5282 79.629 97.804 71.2112C98.7443 69.6919 100.448 66.8413 101.496 65.4868C102.216 64.5543 104.978 62.1097 105.999 61.1841C108.189 59.219 110.408 57.2843 112.654 55.3808C113.637 54.5317 115.208 52.9617 116.196 52.3054C118.692 50.6498 121.743 47.8864 124.343 46.5553Z" fill="#25332D"/>
<path d="M71.7354 151.519C72.4711 144.787 73.3821 138.075 74.4665 131.389C74.7749 129.453 75.0501 127.495 75.3967 125.551C76.2181 120.934 77.6119 116.329 78.796 111.787C79.3433 109.687 79.8784 107.51 80.479 105.449C81.2439 102.828 82.669 99.9768 83.7997 97.4628C87.849 88.4005 92.5282 79.629 97.804 71.2111C98.7443 69.6919 100.448 66.8412 101.496 65.4867C102.216 64.5542 104.978 62.1096 105.999 61.1841C108.189 59.219 110.408 57.2842 112.654 55.3807C113.637 54.5316 115.208 52.9617 116.196 52.3053C118.692 50.6497 121.743 47.8863 124.343 46.5552C124.035 47.2584 123.101 48.699 122.67 49.3958C121.727 50.9084 120.811 52.438 119.924 53.9838C116.687 59.6298 113.593 65.356 110.647 71.157C105.93 80.3067 101.499 89.598 97.3606 99.0192C90.8351 113.604 84.9153 128.535 80.3017 143.83C80.1132 144.455 79.8804 145.222 79.7625 145.863C79.4067 147.804 78.6398 149.57 78.149 151.472C77.7852 151.471 77.3518 151.431 77.0233 151.535C75.4552 151.567 73.2703 151.646 71.7354 151.519Z" fill="#4A5E53"/>
<path d="M10 46.4442C10.9073 46.7506 12.6541 47.9953 13.4921 48.5285C21.9482 53.9085 29.4711 60.6157 37.0413 67.1303C38.0921 68.0346 39.0861 69.508 39.968 70.6088C41.0427 71.9505 42.0974 73.347 43.1503 74.712C44.7901 76.8668 46.3926 79.0491 47.9571 81.2583C48.522 82.0499 50.2665 84.42 50.6221 85.1347C51.7801 87.4648 53.1967 90.3256 54.2062 92.7367C55.5482 95.9424 57.4062 99.8028 58.5541 103.023C59.4081 105.419 60.3923 109.179 61.0474 111.698C62.0539 115.569 63.3799 120.056 64.1982 123.944C65.0181 127.84 65.7315 132.633 66.3348 136.566C66.8705 139.979 67.3463 143.401 67.7617 146.831C67.9195 148.147 68.2192 150.261 68.2535 151.539C67.1838 151.594 64.8104 151.446 63.6498 151.368C61.9077 151.252 59.3028 151.185 57.6294 150.904C56.7981 149.445 56.0114 147.571 55.1907 146.054C52.9859 141.982 50.6542 137.501 48.0998 133.662L36.7421 116.937C35.6012 115.292 34.4495 113.653 33.2869 112.022C32.7837 111.312 31.4838 109.559 31.1504 108.863C29.7391 105.922 28.3203 102.782 27.0453 99.7858L24.4782 93.7393C24.0518 92.7507 23.3051 91.2013 22.9849 90.2537C22.3378 88.3394 21.7712 86.2802 21.1559 84.341C19.075 77.7558 17.1022 71.1378 15.2383 64.4894L11.9512 53.2273C11.3289 51.1183 10.4944 48.5511 10 46.4442Z" fill="#36443F"/>
<path d="M10 46.4442C10.9073 46.7506 12.6541 47.9953 13.4921 48.5285C21.9482 53.9085 29.4711 60.6157 37.0413 67.1303C38.0921 68.0346 39.0861 69.508 39.968 70.6088C41.0427 71.9505 42.0974 73.347 43.1503 74.712C44.7901 76.8668 46.3926 79.0491 47.9571 81.2583C48.522 82.0499 50.2665 84.42 50.6221 85.1347C51.7801 87.4648 53.1967 90.3256 54.2062 92.7367C55.5481 95.9424 57.4062 99.8028 58.5541 103.023C59.4081 105.419 60.3923 109.179 61.0474 111.698C62.0539 115.569 63.3799 120.056 64.1982 123.944C65.0181 127.84 65.7315 132.633 66.3348 136.566C66.8705 139.979 67.3463 143.401 67.7617 146.831C67.9195 148.147 68.2192 150.261 68.2535 151.539C67.1838 151.594 64.8104 151.446 63.6498 151.368C61.9077 151.252 56.6963 123.578 48.6876 107.213C40.6832 90.8558 22.9849 68.2554 22.9849 68.2554L11.9512 53.2273C11.3289 51.1183 10.4944 48.5511 10 46.4442Z" fill="#26302E"/>
<path d="M130 95.8984C129.938 96.6631 124.822 107.124 124.126 108.642C122.509 112.162 121.032 115.784 119.311 119.251C117.616 122.668 115.734 126.016 113.948 129.388C113.057 131.068 112.038 133.484 110.924 134.939C109.581 136.69 99.9033 148.128 98.6204 148.848C96.9606 149.78 94.1881 150.121 92.2723 150.397C92.2118 149.802 95.5396 143.353 96.0082 142.386C100.212 133.708 105.186 125.422 110.348 117.279C110.754 116.638 112.076 115.292 112.639 114.666L116.595 110.263C120.852 105.552 125.511 100.395 130 95.8984Z" fill="#2E3F38"/>
<path d="M19.2043 108.281C19.8531 108.629 22.4064 110.637 23.1078 111.176C27.0124 114.181 30.8314 117.294 34.5603 120.511C35.8065 121.582 37.9719 123.337 39.0038 124.447C40.0238 125.544 41.5313 127.606 42.5029 128.838C46.8555 134.358 50.6067 140.307 54.0261 146.432C54.5289 147.333 56.0217 149.87 56.3073 150.76C55.1381 150.859 49.5147 149.788 48.717 148.967C46.1512 146.329 43.8151 143.351 41.2894 140.656C38.754 137.949 36.6936 134.586 34.5917 131.521C31.2726 126.714 28.0136 121.865 24.8155 116.977L21.0478 111.21C20.5004 110.368 19.638 109.129 19.2043 108.281Z" fill="#2E3F38"/>
</mask>
<g mask="url(#mask0_1_45)">
<rect x="3.62885" y="10.056" width="131.508" height="143.498" fill="url(#paint0_radial_1_45)" fill-opacity="0.53"/>
</g>
</g>
<path d="M437.92 135.573C433.005 135.573 428.499 134.378 424.403 131.989C420.376 129.6 417.167 126.391 414.778 122.364C412.457 118.336 411.296 113.796 411.296 108.745C411.296 103.761 412.457 99.2557 414.778 95.2281C417.167 91.1321 420.376 87.8895 424.403 85.5002C428.499 83.1109 433.005 81.9163 437.92 81.9163C442.903 81.9163 447.409 83.1109 451.436 85.5002C455.464 87.8895 458.673 91.1321 461.062 95.2281C463.451 99.2557 464.646 103.761 464.646 108.745C464.646 113.796 463.451 118.336 461.062 122.364C458.673 126.391 455.464 129.6 451.436 131.989C447.409 134.378 442.903 135.573 437.92 135.573ZM437.92 127.791C441.265 127.791 444.303 126.937 447.033 125.231C449.764 123.524 451.914 121.237 453.484 118.37C455.123 115.503 455.942 112.294 455.942 108.745C455.942 105.127 455.123 101.918 453.484 99.1192C451.914 96.252 449.764 93.9651 447.033 92.2585C444.303 90.5519 441.265 89.6985 437.92 89.6985C434.575 89.6985 431.537 90.5519 428.806 92.2585C426.144 93.9651 423.994 96.252 422.355 99.1192C420.785 101.918 420 105.127 420 108.745C420 112.294 420.785 115.503 422.355 118.37C423.994 121.237 426.144 123.524 428.806 125.231C431.537 126.937 434.575 127.791 437.92 127.791Z" fill="#1A1814"/>
<path d="M356.652 134.549V82.8379H365.459V88.5722C369.486 84.0667 374.811 81.8139 381.433 81.8139C385.392 81.8139 388.874 82.6672 391.877 84.3739C394.881 86.0805 397.202 88.4357 398.84 91.4394C400.547 94.4431 401.4 97.9587 401.4 101.986V134.549H392.697V103.625C392.697 99.2558 391.468 95.8084 389.01 93.2825C386.553 90.7567 383.208 89.4938 378.975 89.4938C376.04 89.4938 373.412 90.1423 371.09 91.4394C368.838 92.7364 366.96 94.5455 365.459 96.8665V134.549H356.652Z" fill="#1A1814"/>
<path d="M319.437 135.471C315.682 135.471 312.371 134.822 309.504 133.525C306.637 132.16 304.384 130.317 302.746 127.996C301.176 125.675 300.391 122.944 300.391 119.804C300.391 114.957 302.234 111.134 305.92 108.335C309.675 105.468 314.727 104.034 321.075 104.034C326.468 104.034 331.383 105.127 335.821 107.311V101.065C335.821 97.1737 334.694 94.2383 332.441 92.2585C330.189 90.2788 326.912 89.289 322.611 89.289C320.154 89.289 317.628 89.6645 315.034 90.4154C312.44 91.098 309.572 92.2244 306.432 93.7945L303.156 87.0362C306.978 85.2613 310.528 83.9643 313.805 83.1451C317.082 82.2576 320.358 81.8139 323.635 81.8139C330.257 81.8139 335.377 83.384 338.995 86.5242C342.613 89.6645 344.422 94.17 344.422 100.041V134.549H335.821V129.736C333.5 131.648 330.974 133.081 328.243 134.037C325.513 134.993 322.577 135.471 319.437 135.471ZM308.787 119.599C308.787 122.33 309.914 124.548 312.167 126.255C314.488 127.893 317.491 128.712 321.178 128.712C324.113 128.712 326.775 128.303 329.165 127.484C331.622 126.596 333.841 125.197 335.821 123.285V113.967C333.773 112.67 331.588 111.748 329.267 111.202C327.014 110.588 324.454 110.281 321.587 110.281C317.696 110.281 314.59 111.134 312.269 112.841C309.948 114.547 308.787 116.8 308.787 119.599Z" fill="#1A1814"/>
<path d="M281.753 134.549V62.8702L290.56 61.027V134.549H281.753Z" fill="#1A1814"/>
<path d="M248.028 135.471C243.044 135.471 238.504 134.31 234.409 131.989C230.381 129.6 227.172 126.391 224.783 122.364C222.394 118.268 221.199 113.694 221.199 108.642C221.199 103.727 222.326 99.2558 224.578 95.2281C226.899 91.2004 230.005 87.9919 233.897 85.6026C237.788 83.2133 242.123 82.0187 246.901 82.0187C251.611 82.0187 255.81 83.2133 259.496 85.6026C263.182 87.9919 266.118 91.2345 268.302 95.3305C270.487 99.3581 271.579 103.864 271.579 108.847V111.509H230.005C230.415 114.581 231.473 117.38 233.18 119.906C234.886 122.364 237.037 124.309 239.631 125.743C242.293 127.176 245.229 127.893 248.437 127.893C251.031 127.893 253.523 127.484 255.912 126.664C258.37 125.845 260.452 124.685 262.159 123.183L267.688 128.917C264.753 131.102 261.681 132.74 258.472 133.832C255.332 134.925 251.85 135.471 248.028 135.471ZM230.108 104.649H262.875C262.397 101.782 261.373 99.2216 259.803 96.9689C258.302 94.6478 256.424 92.8388 254.171 91.5417C251.919 90.2447 249.427 89.5962 246.696 89.5962C243.897 89.5962 241.337 90.2447 239.016 91.5417C236.695 92.7705 234.75 94.5454 233.18 96.8665C231.61 99.1192 230.586 101.713 230.108 104.649Z" fill="#1A1814"/>
<path d="M186.112 135.368C181.265 135.368 176.862 134.174 172.902 131.784C168.943 129.395 165.803 126.221 163.482 122.261C161.161 118.234 160 113.694 160 108.642C160 103.659 161.161 99.1875 163.482 95.2281C165.803 91.2004 168.943 87.9919 172.902 85.6026C176.862 83.2133 181.299 82.0187 186.214 82.0187C189.149 82.0187 191.982 82.4965 194.713 83.4522C197.444 84.408 199.97 85.7733 202.291 87.5482V62.8702L211.097 61.027V134.549H202.393V129.327C197.887 133.354 192.46 135.368 186.112 135.368ZM187.033 127.688C190.173 127.688 193.041 127.108 195.635 125.948C198.297 124.719 200.516 123.046 202.291 120.93V96.3545C200.516 94.3065 198.297 92.7022 195.635 91.5417C193.041 90.3129 190.173 89.6986 187.033 89.6986C183.62 89.6986 180.514 90.5177 177.715 92.1561C174.916 93.7945 172.697 96.0473 171.059 98.9144C169.489 101.713 168.704 104.922 168.704 108.54C168.704 112.158 169.489 115.401 171.059 118.268C172.697 121.135 174.916 123.422 177.715 125.128C180.514 126.835 183.62 127.688 187.033 127.688Z" fill="#1A1814"/>
<defs>
<filter id="filter0_n_1_45" x="10" y="10" width="120" height="141.6" filterUnits="userSpaceOnUse" color-interpolation-filters="sRGB">
<feFlood flood-opacity="0" result="BackgroundImageFix"/>
<feBlend mode="normal" in="SourceGraphic" in2="BackgroundImageFix" result="shape"/>
<feTurbulence type="fractalNoise" baseFrequency="1.953538179397583 1.953538179397583" stitchTiles="stitch" numOctaves="3" result="noise" seed="9169" />
<feColorMatrix in="noise" type="luminanceToAlpha" result="alphaNoise" />
<feComponentTransfer in="alphaNoise" result="coloredNoise1">
<feFuncA type="discrete" tableValues="0 0 0 0 0 0 0 0 0 0 0 0 0 0 0 0 1 1 1 1 1 1 1 1 1 1 1 1 1 1 1 1 1 1 0 0 0 0 0 0 0 0 0 0 0 0 0 0 0 0 0 0 0 0 0 0 0 0 0 0 0 0 0 0 0 0 0 0 0 0 0 0 0 0 0 0 0 0 0 0 0 0 0 0 0 0 0 0 0 0 0 0 0 0 0 0 0 0 0 0 "/>
</feComponentTransfer>
<feComposite operator="in" in2="shape" in="coloredNoise1" result="noise1Clipped" />
<feFlood flood-color="rgba(65, 105, 88, 0.44)" result="color1Flood" />
<feComposite operator="in" in2="noise1Clipped" in="color1Flood" result="color1" />
<feMerge result="effect1_noise_1_45">
<feMergeNode in="shape" />
<feMergeNode in="color1" />
</feMerge>
</filter>
<radialGradient id="paint0_radial_1_45" cx="0" cy="0" r="1" gradientTransform="matrix(0.329188 -58.2809 94.3962 0.524543 75.3902 142.29)" gradientUnits="userSpaceOnUse">
<stop offset="0.000404775" stop-color="#00C26F" stop-opacity="0.5"/>
<stop offset="1" stop-color="#416958" stop-opacity="0"/>
</radialGradient>
<clipPath id="clip0_1_45">
<rect width="120" height="141.6" fill="white" transform="translate(10 10)"/>
</clipPath>
</defs>
</svg>
